<?xml version="1.0" encoding="UTF-8" standalone="no"?>
<!DOCTYPE svg PUBLIC "-//W3C//DTD SVG 20010904//EN"
"http://www.w3.org/TR/2001/REC-SVG-20010904/DTD/svg10.dtd">
<!-- Created with Inkscape (http://www.inkscape.org/) -->
<svg
   width="210mm"
   height="297mm"
   xmlns="http://www.w3.org/2000/svg"
   xmlns:cc="http://web.resource.org/cc/"
   xmlns:inkscape="http://www.inkscape.org/namespaces/inkscape"
   xmlns:sodipodi="http://sodipodi.sourceforge.net/DTD/sodipodi-0.dtd"
   xmlns:rdf="http://www.w3.org/1999/02/22-rdf-syntax-ns#"
   xmlns:dc="http://purl.org/dc/elements/1.1/"
   xmlns:xlink="http://www.w3.org/1999/xlink"
   id="svg1127"
   sodipodi:version="0.32"
   inkscape:version="0.40"
   sodipodi:docbase="/home/sorsera/studying/computergrafik/simon"
   sodipodi:docname="logo.svg">
  <defs
     id="defs3">
    <marker
       style="overflow:visible;"
       id="Arrow1S"
       refX="0.0"
       refY="0.0"
       orient="auto"
       inkscape:stockid="Arrow1S">
      <path
         transform="scale(0.2)"
         style="fill-rule:evenodd;stroke:#000000;stroke-width:1.0pt;marker-start:none;"
         d="M 0.0,0.0 L 5.0,-5.0 L -12.5,0.0 L 5.0,5.0 L 0.0,0.0 z "
         id="path983"
         sodipodi:nodetypes="ccccc" />
    </marker>
    <marker
       style="overflow:visible;"
       id="Arrow2L"
       refX="0.0"
       refY="0.0"
       orient="auto"
       inkscape:stockid="Arrow2L">
      <path
         transform="scale(1.1) translate(-5,0)"
         d="M 8.7185878,4.0337352 L -2.2072895,0.016013256 L 8.7185884,-4.0017078 C 6.9730900,-1.6296469 6.9831476,1.6157441 8.7185878,4.0337352 z "
         style="font-size:12.0;fill-rule:evenodd;stroke-width:0.62500000;stroke-linejoin:round;"
         id="path1868"
         sodipodi:nodetypes="cccc" />
    </marker>
  </defs>
  <sodipodi:namedview
     id="base"
     pagecolor="#ffffff"
     bordercolor="#666666"
     borderopacity="1.0"
     inkscape:pageopacity="0.0"
     inkscape:pageshadow="2"
     inkscape:zoom="1.7366334"
     inkscape:cx="244.15975"
     inkscape:cy="528.53607"
     inkscape:current-layer="layer1"
     inkscape:window-width="1280"
     inkscape:window-height="1001"
     inkscape:window-x="0"
     inkscape:window-y="0" />
  <metadata
     id="metadata4">
    <rdf:RDF
       id="RDF5">
      <cc:Work
         rdf:about=""
         id="Work6">
        <dc:format
           id="format7">image/svg+xml</dc:format>
        <dc:type
           id="type9"
           rdf:resource="http://purl.org/dc/dcmitype/StillImage" />
      </cc:Work>
    </rdf:RDF>
  </metadata>
  <g
     inkscape:label="Layer 1"
     inkscape:groupmode="layer"
     id="layer1">
    <rect
       style="fill:#bd1022;fill-opacity:1.0000000;stroke:#000000;stroke-width:0.89823353;stroke-linecap:round;stroke-linejoin:round;stroke-miterlimit:50.000000;stroke-opacity:1.0000000"
       id="rect1776"
       width="261.81903"
       height="248.47646"
       x="35.000561"
       y="131.68356" />
    <rect
       style="fill:#000000;fill-opacity:1.0000000;stroke:none;stroke-width:0.79999971;stroke-linecap:butt;stroke-linejoin:miter;stroke-miterlimit:4.0000000;stroke-opacity:1.0000000"
       id="rect1772"
       width="72.698135"
       height="72.698135"
       x="203.23424"
       y="154.19858"
       transform="matrix(0.997036,7.693898e-2,-7.693898e-2,0.997036,0.000000,0.000000)" />
    <rect
       style="fill:#000000;fill-opacity:1.0000000;stroke:none;stroke-width:0.80000001;stroke-linecap:butt;stroke-linejoin:miter;stroke-miterlimit:4.0000000;stroke-opacity:1.0000000"
       id="rect1773"
       width="72.698097"
       height="72.698097"
       x="287.29861"
       y="152.85445"
       transform="matrix(0.921258,0.388951,-0.388951,0.921258,0.000000,0.000000)" />
    <rect
       style="fill:#000000;fill-opacity:1.0000000;stroke:none;stroke-width:0.79999882;stroke-linecap:butt;stroke-linejoin:miter;stroke-miterlimit:4.0000000;stroke-opacity:1.0000000"
       id="rect1774"
       width="72.697990"
       height="72.697990"
       x="321.01932"
       y="132.14299"
       transform="matrix(0.746664,0.665201,-0.665201,0.746664,0.000000,0.000000)" />
    <rect
       style="fill:#000000;fill-opacity:1.0000000;stroke:none;stroke-width:0.79999822;stroke-linecap:butt;stroke-linejoin:miter;stroke-miterlimit:4.0000000;stroke-opacity:1.0000000"
       id="rect1775"
       width="72.697929"
       height="72.697929"
       x="197.34903"
       y="217.11105"
       transform="matrix(0.851699,0.524031,-0.524031,0.851699,0.000000,0.000000)" />
    <path
       style="fill:#000000;fill-opacity:1.0000000;fill-rule:nonzero;stroke:none;stroke-width:3.0000000pt;stroke-linecap:butt;stroke-linejoin:miter;stroke-opacity:1.0000000"
       id="path1887"
       d="M 214.39561,240.88070 C 219.67043,235.84905 228.77697,225.69439 231.92256,233.74869 C 232.23475,240.98768 237.40934,246.87207 240.73206,253.02703 C 243.39294,257.71366 244.49014,262.74413 244.61798,268.05459 L 229.55228,275.63345 C 229.71891,270.55647 228.74695,265.83950 226.24477,261.33535 C 222.70296,255.00732 217.59964,248.99916 216.60284,241.64582 C 217.00603,241.42807 237.39029,229.64014 230.45643,234.22808 L 214.39561,240.88070 z " />
    <path
       style="fill:#000000;fill-opacity:1.0000000;fill-rule:nonzero;stroke:none;stroke-width:3.0000000pt;stroke-linecap:butt;stroke-linejoin:miter;stroke-opacity:1.0000000"
       id="path1888"
       d="M 217.22242,318.11199 C 178.58035,345.38977 225.16323,301.64799 217.61295,327.60619 C 208.04752,344.23240 187.26248,353.36393 169.16384,357.59558 L 181.90996,347.85876 C 188.14626,346.26056 205.12560,337.23329 197.71390,342.27269 C 175.84714,357.14049 199.51689,341.67291 202.37809,334.69326 C 203.13251,332.47463 203.21790,325.36565 203.17747,327.70869 C 203.15800,328.83697 242.80399,305.35826 203.15698,328.33112 L 217.22242,318.11199 z " />
    <path
       style="fill:#000000;fill-opacity:1.0000000;fill-rule:nonzero;stroke:none;stroke-width:3.0000000pt;stroke-linecap:butt;stroke-linejoin:miter;stroke-opacity:1.0000000"
       id="path1889"
       d="M 147.06212,369.79752 C 130.45651,378.80084 136.46179,381.01201 127.14614,372.81394 C 114.44131,362.41771 98.964188,356.44299 83.294238,352.16215 L 96.309288,343.22583 C 112.34156,347.59346 128.06150,353.72576 141.36731,363.90307 C 151.84660,372.35650 148.07126,372.47337 132.23973,378.88070 L 147.06212,369.79752 z " />
    <path
       style="fill:#000000;fill-opacity:1.0000000;fill-rule:nonzero;stroke:none;stroke-width:3.0000000pt;stroke-linecap:butt;stroke-linejoin:miter;stroke-opacity:1.0000000"
       id="path1891"
       d="M 223.30504,183.19843 C 222.54728,180.32634 221.24875,177.31185 220.40372,174.35576 C 217.96206,163.59882 221.27307,153.32551 229.57953,146.19387 C 238.31409,139.65167 248.28701,135.08523 257.72813,129.70932 C 258.55435,129.23886 261.01094,127.78857 260.18604,128.26140 C 237.03211,141.53329 254.97079,131.50056 259.74324,124.18911 C 261.08381,122.04278 261.66751,119.66376 262.20339,117.22548 L 277.11440,109.91455 C 276.67586,112.51864 276.19648,115.07527 274.91333,117.42390 C 267.94889,129.52102 218.15280,155.44576 249.28686,137.23446 C 250.74681,136.38048 243.54618,140.59365 244.99338,139.94134 C 236.67864,146.32977 232.81007,155.78055 235.24176,166.20671 C 236.19189,169.32622 237.48169,172.26944 238.79593,175.22713 L 223.30504,183.19843 z " />
    <path
       style="fill:#000000;fill-opacity:1.0000000;fill-rule:nonzero;stroke:none;stroke-width:3.0000000pt;stroke-linecap:butt;stroke-linejoin:miter;stroke-opacity:1.0000000"
       id="path1892"
       d="M 48.773098,309.93080 C 37.344488,319.80490 35.569108,322.06141 25.146978,316.06763 C 11.556818,306.55543 4.6434578,290.80020 2.4114978,274.80968 C -0.0065321684,258.94182 6.0057278,244.86324 12.237118,230.75936 L 27.257948,223.88135 C 21.042538,237.77518 14.545078,251.55058 16.701438,267.28792 C 18.677578,282.79233 25.457048,298.39270 39.182818,306.94799 C 49.882878,312.10358 52.982058,305.90249 33.282208,317.82380 L 48.773098,309.93080 z " />
    <text
       xml:space="preserve"
       style="font-size:170.00000;font-style:normal;font-variant:normal;font-weight:normal;font-stretch:condensed;fill:#000000;fill-opacity:1.0000000;stroke:none;stroke-width:3.0000000pt;stroke-linecap:butt;stroke-linejoin:miter;stroke-opacity:1.0000000;font-family:Quixotic;text-anchor:start;writing-mode:lr"
       x="324.62234"
       y="181.42421"
       id="text1910"
       sodipodi:linespacing="100%"
       transform="matrix(0.000000,-1.000000,1.000000,0.000000,256.9562,700.9104)"><tspan
         sodipodi:role="line"
         id="tspan1911"
         x="324.62234"
         y="181.42421">SIMON</tspan></text>
  </g>
</svg>
